# xmcd CD database file
#
# Track frame offsets:
#	150
#	22182
#	58400
#	95342
#	125655
#	147590
#	180662
#	221055
#	260235
#	280220
#	302870
#
# Disc length: 4410 seconds
#
# Revision: 3
# Processed by: cddbd v1.5.1PL2 Copyright (c) Steve Scherf et al.
# Submitted via: CDex 1.51
#
DISCID=b911380b
DTITLE=Various Artist - 決定版ジャズ・スタンダード
DYEAR=2005
DGENRE=Jazz
TTITLE0=マル・ウォルドロン - あなたと夜と音楽と
TTITLE1=アラン・ブロードベント - ホワッツ・ニュー
TTITLE2=アラン・ブロードベント - ラウンド・ミッドナイト
TTITLE3=デヴィッド・マシューズ - ワルツ・フォー・デビー
TTITLE4=ブライアン・ブロンバーグ - スピーク・ロウ
TTITLE5=ランディ・ウォルドマン - ボディ・アンド・ソウル
TTITLE6=マンハッタン・ジャズ・クインテット - サマータイム
TTITLE7=マンハッタン・ジャズ・クインテット - リカード・ボサノバ
TTITLE8=フレンチ・ジャズ・トリオ - カーニバルの朝
TTITLE9=フレンチ・ジャズ・トリオ - 枯葉
TTITLE10=デューク・ジョーダン - 危険な関係のブルース
EXTD=CBS Maestro M2YK 45676 YEAR: 2005
EXTT0=
EXTT1=
EXTT2=
EXTT3=
EXTT4=
EXTT5=
EXTT6=
EXTT7=
EXTT8=
EXTT9=
EXTT10=
PLAYORDER=
